<svg xmlns="http://www.w3.org/2000/svg" width="667.898" height="531.394" viewBox="0 0 667.898 531.394">
  <g id="Group_24" data-name="Group 24" transform="translate(0)">
    <path id="Path_56" data-name="Path 56" d="M177.275,122.143,97.822,111.55,113.9,30.122l85.352,16.854Z" fill="#2f2e41"/>
    <path id="Path_57" data-name="Path 57" d="M100.9,474.414V138.494a11.052,11.052,0,0,1,11.04-11.04h544.92a11.053,11.053,0,0,1,11.04,11.04v335.92a11.053,11.053,0,0,1-11.04,11.04H111.938A11.052,11.052,0,0,1,100.9,474.414Zm565-335.92a9.04,9.04,0,0,0-9.04-9.04H111.938a9.04,9.04,0,0,0-9.04,9.04v335.92a9.04,9.04,0,0,0,9.04,9.04H499.264A166.634,166.634,0,0,0,665.9,316.82Z" fill="#3f3d56"/>
    <g id="Group_16" data-name="Group 16">
      <path id="Path_58" data-name="Path 58" d="M612.727,177.751l-8.23-3.9c3.376,4.711,6.284,12.068,7.841,17.923,2.637-5.453,6.887-12.126,11.094-16.112l-8.7,2.238c5.36-26.268,25.519-45.126,48.6-45.126l.327-.949c-24.113,0-45.466,18.6-50.938,45.925Z" fill="#3f3d56"/>
      <path id="Path_59" data-name="Path 59" d="M650.606,217.775h-52a4,4,0,0,1,0-8h52a4,4,0,0,1,0,8Z" fill="#6c63ff"/>
    </g>
    <g id="Group_18" data-name="Group 18">
      <path id="Path_60" data-name="Path 60" d="M496.216,247.818v106a17.019,17.019,0,0,1-17,17h-106a17.019,17.019,0,0,1-17-17v-106a17.019,17.019,0,0,1,17-17h106A17.019,17.019,0,0,1,496.216,247.818Zm-23.576,121a21.576,21.576,0,0,0,21.576-21.576V300.377a67.559,67.559,0,0,0-67.559-67.559H373.216a15,15,0,0,0-15,15v91.211a29.789,29.789,0,0,0,29.789,29.789H472.64Z" fill="#3f3d56"/>
      <g id="Group_17" data-name="Group 17">
        <path id="Path_61" data-name="Path 61" d="M440.326,274.11H406.105a1.565,1.565,0,1,1,0-3.129h34.221a1.565,1.565,0,0,1,0,3.129Z" fill="#3f3d56"/>
        <path id="Path_62" data-name="Path 62" d="M440.326,307.474H406.105a1.565,1.565,0,1,1,0-3.129h34.221a1.565,1.565,0,0,1,0,3.129Z" fill="#3f3d56"/>
        <path id="Path_63" data-name="Path 63" d="M423.326,353.474H389.105a1.565,1.565,0,1,1,0-3.129h34.221a1.565,1.565,0,0,1,0,3.129Z" fill="#3f3d56"/>
        <path id="Path_64" data-name="Path 64" d="M458.69,290.8H387.743a1.565,1.565,0,1,1,0-3.129H458.69a1.565,1.565,0,0,1,0,3.129Z" fill="#3f3d56"/>
      </g>
    </g>
    <path id="Path_65" data-name="Path 65" d="M183.62,302.62H66.345c9.83-21.935,15.873-42.824,6.426-59.441l110.849-6.426c-5.539,22.431-6.217,44.445,0,65.867Z" fill="#ffb6b6"/>
    <path id="Path_66" data-name="Path 66" d="M224.01,485.454H137.794a1.628,1.628,0,0,1-1.464-.917l-.525-1.083-11.457-23.518a1.628,1.628,0,0,0-3.089.634l-1.1,22.883-.023.454a1.628,1.628,0,0,1-1.626,1.546H33.62a1.63,1.63,0,0,1-1.625-1.523q-.016-.239-.03-.477c-5.42-83.65,14.07-140.35,25.5-165.72l.01-.01a131.945,131.945,0,0,1,7.75-15.11l1.13-.01h.01l22.83-.4h.01l20.22-.34,15.28-.25,6.13-.11h.01l3.84-.06,19.09-.33,17.05-.29,12.24-.2h.34l1.82,7.85v.01l.07.35v.01l.31,1.29.01.04.62,2.71v.02l.04.15v.01l.15.65.01.03,1.44,6.23,2.33,10.13,3.07,13.25,3.87,16.82,1.96,8.47,2.69,11.67,23.8,103.14h0a1.628,1.628,0,0,1-1.584,2Z" fill="#2f2e41"/>
    <path id="Path_67" data-name="Path 67" d="M166.689,107.284l-46.671-1.628L101.57,130.394,91.863,132.5a29.784,29.784,0,0,0-23.374,31.425L72.9,266.775l2,12,110,18,24.734-155.648-32.546-11.693-10.4-22.151Z" fill="#6c63ff"/>
    <circle id="Ellipse_14" data-name="Ellipse 14" cx="41.893" cy="41.893" r="41.893" transform="translate(107.764 19.597)" fill="#ffb6b6"/>
    <g id="Group_19" data-name="Group 19">
      <path id="Path_68" data-name="Path 68" d="M616.185,481.565l-36.319-13.5a10.551,10.551,0,0,1-6.208-13.551l35.68-96.01A10.551,10.551,0,0,1,622.89,352.3l36.319,13.5a10.551,10.551,0,0,1,6.208,13.551c-13.652,38.806-28.545,82.41-35.68,96.01a10.551,10.551,0,0,1-13.55,6.208Z" fill="#3f3d56"/>
      <path id="Path_69" data-name="Path 69" d="M656.469,404.972a.446.446,0,0,0-.573.263l-4.97,13.374a.446.446,0,1,0,.836.311l4.97-13.374A.446.446,0,0,0,656.469,404.972Z" fill="#3f3d56"/>
      <path id="Path_70" data-name="Path 70" d="M664.475,379,628.8,475.006a9.537,9.537,0,0,1-11.672,5.815h0c-.07-.021-.141-.043-.213-.067-.126-.04-.25-.083-.375-.13l-1.264-.579c-.825-.378-2.025-.931-3.519-1.627q-.673-.311-1.419-.661c-.993-.464-2.083-.974-3.25-1.526-.466-.218-.947-.447-1.438-.68-2.512-1.188-5.322-2.53-8.277-3.966q-.751-.361-1.511-.733c-.133-.066-21.671-14.867-21.255-15.987l35.68-96.008a9.536,9.536,0,0,1,12.262-5.617l5.337,1.983a1.738,1.738,0,0,1,1.048,2.114c-.015.059-.029.117-.04.178a1.937,1.937,0,0,0,1.269,2.122l18.759,6.972a1.937,1.937,0,0,0,2.346-.779c.031-.053.059-.107.086-.161a1.738,1.738,0,0,1,2.174-.916l5.337,1.983A9.536,9.536,0,0,1,664.475,379Z" fill="#6c63ff"/>
      <path id="Path_71" data-name="Path 71" d="M603.4,373.836a.446.446,0,0,0-.573.263l-1.243,3.343a.446.446,0,1,0,.836.311l1.243-3.343A.446.446,0,0,0,603.4,373.836Z" fill="#3f3d56"/>
      <path id="Path_72" data-name="Path 72" d="M599.677,383.866a.446.446,0,0,0-.573.263l-2.407,6.478a.446.446,0,1,0,.836.311l2.407-6.478A.446.446,0,0,0,599.677,383.866Z" fill="#3f3d56"/>
      <path id="Path_73" data-name="Path 73" d="M596.26,393.061a.446.446,0,0,0-.573.263l-2.407,6.478a.446.446,0,1,0,.836.311l2.407-6.478A.446.446,0,0,0,596.26,393.061Z" fill="#3f3d56"/>
      <rect id="Rectangle_9" data-name="Rectangle 9" width="8.694" height="1.115" rx="0.086" transform="translate(619.114 353.635) rotate(20.387)" fill="#e6e6e6"/>
      <circle id="Ellipse_15" data-name="Ellipse 15" cx="0.892" cy="0.892" r="0.892" transform="translate(653.328 366.024)" fill="#e6e6e6"/>
      <circle id="Ellipse_16" data-name="Ellipse 16" cx="0.892" cy="0.892" r="0.892" transform="translate(655.627 366.878)" fill="#e6e6e6"/>
      <circle id="Ellipse_17" data-name="Ellipse 17" cx="0.892" cy="0.892" r="0.892" transform="translate(657.925 367.732)" fill="#e6e6e6"/>
    </g>
    <g id="Group_20" data-name="Group 20">
      <path id="Path_74" data-name="Path 74" d="M527.137,178.394H495.775a7.327,7.327,0,0,1-7.319-7.319V135.713a7.327,7.327,0,0,1,7.319-7.319h31.362a7.327,7.327,0,0,1,7.319,7.319v35.362A7.327,7.327,0,0,1,527.137,178.394Z" fill="#fff"/>
      <path id="Path_75" data-name="Path 75" d="M527.137,178.394H495.775a7.327,7.327,0,0,1-7.319-7.319c-1.577-13.021-2.011-25.149,0-35.362a7.327,7.327,0,0,1,7.319-7.319h31.362a7.327,7.327,0,0,1,7.319,7.319v35.362a7.327,7.327,0,0,1-7.319,7.319Zm-31.362-49a6.326,6.326,0,0,0-6.319,6.319v35.362a6.326,6.326,0,0,0,6.319,6.319h31.362a6.326,6.326,0,0,0,6.319-6.319V135.713a6.326,6.326,0,0,0-6.319-6.319Z" fill="#3f3d56"/>
      <path id="Path_76" data-name="Path 76" d="M523.968,149.894H498.127a1.988,1.988,0,1,1,0-3.976h25.841a1.988,1.988,0,1,1,0,3.976Z" fill="#6c63ff"/>
      <path id="Path_77" data-name="Path 77" d="M523.968,160.894H498.127a1.988,1.988,0,1,1,0-3.976h25.841a1.988,1.988,0,1,1,0,3.976Z" fill="#6c63ff"/>
      <path id="Path_78" data-name="Path 78" d="M523.968,138.894H498.127a1.988,1.988,0,1,1,0-3.976h25.841a1.988,1.988,0,1,1,0,3.976Z" fill="#6c63ff"/>
    </g>
    <g id="Group_21" data-name="Group 21">
      <path id="Path_79" data-name="Path 79" d="M135.412,116.425a28.01,28.01,0,0,0,8.646,10.01l19.264,42.606,20.006-9.76-21.7-42.169a28.01,28.01,0,0,0-3.438-12.772c-5.244-9.886-14.6-15.195-20.887-11.858s-7.14,14.057-1.9,23.943h0Z" fill="#ffb6b6"/>
      <path id="Path_80" data-name="Path 80" d="M178.79,143.28s29.341-15.376,38.445.769c7.767,13.775,13.38,82.7,14.86,102.64a15.755,15.755,0,0,1-2.6,9.9h0a15.779,15.779,0,0,1-25.008,1.664L145.035,141.183l28.2-13.4,6.9,16.7-1.345-1.2Z" fill="#6c63ff"/>
    </g>
    <path id="Path_81" data-name="Path 81" d="M241.52,308.2a5.578,5.578,0,0,0,1.024-3.228V202.38a5.606,5.606,0,0,0-5.606-5.606H81.858a5.606,5.606,0,0,0-5.606,5.606V304.974a5.578,5.578,0,0,0,1.024,3.228H57.908v5.378a1824.647,1824.647,0,0,0,202.981,0V308.2H241.52Z" fill="#3f3d56"/>
    <g id="Group_22" data-name="Group 22">
      <path id="Path_82" data-name="Path 82" d="M408.137,531.394H376.775a7.327,7.327,0,0,1-7.319-7.319V488.713a7.327,7.327,0,0,1,7.319-7.319h31.362a7.327,7.327,0,0,1,7.319,7.319v35.362A7.327,7.327,0,0,1,408.137,531.394Z" fill="#fff"/>
      <path id="Path_83" data-name="Path 83" d="M408.137,531.394H376.775a7.327,7.327,0,0,1-7.319-7.319c-1.577-13.021-2.011-25.149,0-35.362a7.327,7.327,0,0,1,7.319-7.319h31.362a7.327,7.327,0,0,1,7.319,7.319v35.362A7.327,7.327,0,0,1,408.137,531.394Zm-31.362-49a6.326,6.326,0,0,0-6.319,6.319v35.362a6.326,6.326,0,0,0,6.319,6.319h31.362a6.326,6.326,0,0,0,6.319-6.319V488.713a6.326,6.326,0,0,0-6.319-6.319Z" fill="#3f3d56"/>
      <path id="Path_84" data-name="Path 84" d="M404.968,502.894H379.127a1.988,1.988,0,0,1,0-3.976h25.841a1.988,1.988,0,0,1,0,3.976Z" fill="#6c63ff"/>
      <path id="Path_85" data-name="Path 85" d="M404.968,513.894H379.127a1.988,1.988,0,0,1,0-3.976h25.841a1.988,1.988,0,1,1,0,3.976Z" fill="#6c63ff"/>
      <path id="Path_86" data-name="Path 86" d="M404.968,491.894H379.127a1.988,1.988,0,0,1,0-3.976h25.841a1.988,1.988,0,0,1,0,3.976Z" fill="#6c63ff"/>
    </g>
    <g id="Group_23" data-name="Group 23">
      <path id="Path_87" data-name="Path 87" d="M134.539,294.628a28.011,28.011,0,0,0-12.879,3.016l-46.681-2.7-.635,22.25,47.422.344a28.01,28.01,0,0,0,12.91,2.879c11.191-.059,20.232-5.88,20.194-13s-9.14-12.846-20.331-12.787h0Z" fill="#ffb6b6"/>
      <path id="Path_88" data-name="Path 88" d="M89.689,132.578s-39.682-4.422-49.791,20.2c-7.722,18.806-27.783,92.1-39.04,134.063A24.766,24.766,0,0,0,23.8,318l70.1,2.776,4.054-31.009L47.9,281.774l28-84,13.791-65.2Z" fill="#6c63ff"/>
    </g>
    <path id="Path_89" data-name="Path 89" d="M191.56,29.148c2.014-10.2-10.349-14.164-19.608-18.9L164.091,3.6a32.856,32.856,0,0,0-26.539-1.492l-27.032,9C98.25,15.73,93.968,26.733,86.9,37.775L75.046,53.6c-6.96,10.87-4.879,27.84-3.247,40.644l.684,5.365-6.512,15.572,50.045,8.934L126.1,100.081l-6.295-11.422A9.835,9.835,0,0,1,121.954,76.5h0C134.5,65.558,136.9,46.775,136.9,46.775l10.6,9.349a64.315,64.315,0,0,0,21.347,4.494,38.3,38.3,0,0,0,19.445-4.594l1.018,15.491c-2.991,18.313-7.454,22.339-27.564,36.349L185.95,132l1.134-9.828c2.7-23.378,14.356-39.649,17.512-58.459A36.936,36.936,0,0,0,191.56,29.148h0Z" fill="#2f2e41"/>
  </g>
</svg>
