<svg xmlns="http://www.w3.org/2000/svg" width="256" height="189.243" viewBox="0 0 256 189.243">
  <g id="Illustration" transform="translate(129 -163.127)">
    <g id="Group_3" data-name="Group 3" transform="translate(-129 163.127)">
      <path id="Path_1" data-name="Path 1" d="M481.712,344.341H343.854a4.638,4.638,0,0,1-4.633-4.633V227.455a4.638,4.638,0,0,1,4.633-4.633H481.712a4.639,4.639,0,0,1,4.633,4.633V339.708A4.639,4.639,0,0,1,481.712,344.341Z" transform="translate(-300.003 -205.542)" fill="#e6e6e6"/>
      <path id="Path_2" data-name="Path 2" d="M353.365,232.509a4.468,4.468,0,0,0-4.463,4.463v106a4.468,4.468,0,0,0,4.463,4.463h94.359a41.759,41.759,0,0,0,41.712-41.712V236.972a4.468,4.468,0,0,0-4.463-4.463Z" transform="translate(-306.388 -211.931)" fill="#fff"/>
      <path id="Path_3" data-name="Path 3" d="M631.688,340.817h-25a1.969,1.969,0,0,1-1.966-1.966V326.409a1.969,1.969,0,0,1,1.966-1.966h25a1.969,1.969,0,0,1,1.966,1.966c1.547,4.4,1.766,8.586,0,12.442A1.969,1.969,0,0,1,631.688,340.817Z" transform="translate(-475.117 -272.567)" fill="#e6e6e6"/>
      <path id="Path_4" data-name="Path 4" d="M630.846,342.056H609.608a1.673,1.673,0,0,1-1.671-1.671v-10.57a1.672,1.672,0,0,1,1.671-1.671h21.237a1.672,1.672,0,0,1,1.671,1.671c1.433,3.764,1.664,7.327,0,10.57A1.673,1.673,0,0,1,630.846,342.056Z" transform="translate(-477.236 -275.008)" fill="#fff"/>
      <path id="Path_5" data-name="Path 5" d="M635.613,384.444H618.774a1.868,1.868,0,1,1-.007-3.736h16.846a1.868,1.868,0,0,1,0,3.736Z" transform="translate(-483.149 -309.677)" fill="#e6e6e6"/>
      <path id="Path_6" data-name="Path 6" d="M637.191,336.528a.733.733,0,0,0-.73.732v7.919a.73.73,0,0,0,1.092.635l6.99-3.986a.73.73,0,0,0,0-1.271l-6.989-3.934a.73.73,0,0,0-.359-.095Z" transform="translate(-496.049 -280.538)" fill="#e6e6e6"/>
      <path id="Path_7" data-name="Path 7" d="M908.776,681.121a3.121,3.121,0,0,0-3.333-1.065l-.131.039-1.174,4.582c-.176-.683-.552-2.224-.789-3.733l-.021-.125-.117.051a15.918,15.918,0,0,0-3.433,2.069,16.464,16.464,0,0,0-6.156,12.4l0,.088,0,.055.155-.055,3.335-1.192a9.955,9.955,0,0,0,8.027-2.993,20.71,20.71,0,0,0,3.165-5.017c.262-.515.53-1.047.8-1.558A3.172,3.172,0,0,0,908.776,681.121Z" transform="translate(-665.659 -507.029)" fill="#f2f2f2"/>
      <path id="Path_8" data-name="Path 8" d="M687.9,334.583a2.416,2.416,0,0,0,3.24,1.8l9.967,11.594,1.262-4.28-9.881-10.607a2.429,2.429,0,0,0-4.587,1.5Z" transform="translate(-529.947 -277.338)" fill="#ffb8b8"/>
      <path id="Path_9" data-name="Path 9" d="M572.525,520.592h-3.3l-1.569-12.722h4.868Z" transform="translate(-374.402 -334.968)" fill="#ffb6b6"/>
      <path id="Path_10" data-name="Path 10" d="M786.917,711.286l-3.522-1.432-.1-.041-1.944,1.474a4.14,4.14,0,0,0-4.139,4.139v.135h10.635v-4.274Z" transform="translate(-588.881 -526.739)" fill="#2f2e41"/>
      <path id="Path_11" data-name="Path 11" d="M641.637,520.592h-3.3L636.77,507.87h4.868Z" transform="translate(-419.985 -334.968)" fill="#ffb6b6"/>
      <path id="Path_12" data-name="Path 12" d="M856.029,711.286l-3.522-1.432-.1-.041-1.944,1.474a4.14,4.14,0,0,0-4.14,4.139v.135h10.635v-4.274Z" transform="translate(-634.464 -526.739)" fill="#2f2e41"/>
      <path id="Path_13" data-name="Path 13" d="M803.638,494.155s4.137,4.3,4.137,7.84-1.034,8.392,0,9.455,2.327,2.356.776,3.907-2.327,2.327-1.293,3.361.517,19.133.517,19.133l5.43,24.3h-6.841l-8.673-24.3-2.327-20.168-7.526,19.392.831,25.289-7.151-.208-2.96-26.89s4.4-25.579,3.62-26.235,0-1.979,0-1.979l2.068-9.795Z" transform="translate(-589.77 -384.501)" fill="#2f2e41"/>
      <path id="Path_14" data-name="Path 14" d="M745.878,364.424s1.407-5.543-5.074-7.132-25.005-3.631-25.005-3.631l-9.362-9.934-3.172,4.607,10.495,13.042,24.867,5.108Z" transform="translate(-540.11 -285.286)" fill="#3f3d56"/>
      <path id="Path_15" data-name="Path 15" d="M703.024,347.309a4.391,4.391,0,0,0,.674-1.248l1.343-3.3-.348-.015a3.483,3.483,0,0,0-4.118,3.171,2.267,2.267,0,0,0,.219,1.233,1.344,1.344,0,0,0,.984.722,1.486,1.486,0,0,0,1.246-.565Z" transform="translate(-538.327 -284.6)" fill="#e6e6e6"/>
      <path id="Path_16" data-name="Path 16" d="M789.885,499.08l-.776,5.623s1.551,1.666,2.327,1.458,3.62-1.421,3.62-1.421a20.708,20.708,0,0,0,5.171,2.045c1.81.208,11.377-1.041,11.635-1.666s3.264-3.07,3.264-3.07l-1.2-7.134Z" transform="translate(-596.729 -385.002)" fill="#e6e6e6"/>
      <path id="Path_17" data-name="Path 17" d="M814.327,392.751s-.657,5.422-.14,5.921-.517,3.638-1.551,5.706.776,2.327.776,3.878.776,7.24.776,7.24-8.015.517-9.308-.776-3.361-.259-6.205,2.586-9.021.517-10.314-.776,1.006-5.947,1.781-6.849-.747.142-1.523-2.717.747-2.586,2.04-3.878,0-3.62-1.034-5.947-.259-19.65-.259-23.787,5.688-4.654,5.688-4.654l2.252-2.831,1.655-2.081,3.242-.129.085,0,3.136-.127,1.523,1.774,3.361,3.915,3.878.776c3.1,1.034,2.327,7.5,2.327,7.5Z" transform="translate(-595.98 -298.344)" fill="#3f3d56"/>
      <circle id="Ellipse_1" data-name="Ellipse 1" cx="6.646" cy="6.646" r="6.646" transform="translate(199.417 50.897)" fill="#ffb6b6"/>
      <path id="Path_18" data-name="Path 18" d="M823.64,323.063c-1.828-1.121-1.594-4.052-3.355-5.076a6.273,6.273,0,0,0-5.8-.244,3.5,3.5,0,0,0-3.719.851,6.225,6.225,0,0,0-1.688,3.794,14.2,14.2,0,0,0,.3,4.264l.3-1.685,5.24-1.145-1.392,1.25a9.517,9.517,0,0,0,6.958-1.088c2.281,1.023,1.868,3.319-.135,6.367C821.125,331.645,825.723,324.34,823.64,323.063Z" transform="translate(-609.87 -267.756)" fill="#2f2e41"/>
      <path id="Path_19" data-name="Path 19" d="M825.029,364.629a.547.547,0,0,1-.046.034,3.482,3.482,0,0,1-1.812.491,3.2,3.2,0,0,1-2.309-.724c-.339-.321-1.686.357-2.57.732a3.9,3.9,0,0,1-2.9.034l1.655-2.081,2.727-.6h.681l3.056.346Z" transform="translate(-614.061 -297.674)" fill="#e6e6e6"/>
      <path id="Path_20" data-name="Path 20" d="M794.768,726.056l-92.516.1a.405.405,0,0,1,0-.811h0l92.516-.1a.405.405,0,1,1,0,.811Z" transform="translate(-539.173 -536.918)" fill="#cacaca"/>
      <path id="Path_21" data-name="Path 21" d="M424.064,61.349h-.681v-48.7h26.778v.681h-26.1Z" transform="translate(-279.244 -8.344)" fill="#3f3d56"/>
      <path id="Path_22" data-name="Path 22" d="M743.706,172.066H725.663a4.426,4.426,0,0,0,0,8.852h18.044a4.426,4.426,0,1,0,0-8.852Z" transform="translate(-551.964 -172.066)" fill="#6c63ff"/>
      <circle id="Ellipse_2" data-name="Ellipse 2" cx="4.067" cy="4.067" r="4.067" transform="translate(140.017 49.326)" fill="#6c63ff"/>
      <path id="Path_23" data-name="Path 23" d="M502.069,361.554l17.841-4.129,5.121-1.185c.641-.148.375-1.134-.266-.986l-17.841,4.129-5.121,1.185c-.641.148-.375,1.134.266.986Z" transform="translate(-406.992 -292.879)" fill="#f2f2f2"/>
      <path id="Path_24" data-name="Path 24" d="M556.9,340.4l9.551,4.394a3.165,3.165,0,0,1,.9.489c.264.258.072.507-.143.732a21.535,21.535,0,0,1-2.033,1.678L561.112,351c-.511.415.21,1.14.716.729l3.544-2.881,1.772-1.441a3.45,3.45,0,0,0,1.315-1.475c.424-1.366-1.249-1.909-2.178-2.337l-4.159-1.913-4.7-2.161c-.592-.272-1.117.6-.52.879Z" transform="translate(-443.402 -282.479)" fill="#f2f2f2"/>
      <path id="Path_25" data-name="Path 25" d="M862.639,436.924a11.706,11.706,0,0,0-5.789-1.728,62.1,62.1,0,0,0-6.895.008q-3.578.142-7.141.518t-7.087.987a52.363,52.363,0,0,0-6.241,1.366,16.749,16.749,0,0,0-5.4,2.606,9.557,9.557,0,0,0-3.171,4.2,7.794,7.794,0,0,0-.306,4.921,5.87,5.87,0,0,0,1.16,2.155,8.085,8.085,0,0,0,2.161,1.711c1.688.964,3.6,1.543,5.127,2.777a7.245,7.245,0,0,1,1.095,1.088,1.987,1.987,0,0,0,.879.692,1.8,1.8,0,0,0,1.93-.5,6.53,6.53,0,0,0,.759-1.35l.805-1.554a2.166,2.166,0,0,1,.2-.388c.06-.072-.048,0-.027-.017s.035-.01.048-.018a1.162,1.162,0,0,1,.208-.08q1.117-.426,2.245-.825c2.774-.989,5.582-1.9,8.434-2.638a40.824,40.824,0,0,1,4.459-.933c1.946-.277,3.921-.245,5.876-.434a13.57,13.57,0,0,0,6.081-1.789,7.9,7.9,0,0,0,3.269-3.913,5.474,5.474,0,0,0,.273-2.422A6.518,6.518,0,0,0,862.639,436.924Z" transform="translate(-617.334 -345.554)" fill="#e6e6e6"/>
      <path id="Path_26" data-name="Path 26" d="M860.3,440.318a10.578,10.578,0,0,0-5.232-1.561,56.129,56.129,0,0,0-6.23.007q-3.233.128-6.454.468t-6.4.892a47.317,47.317,0,0,0-5.64,1.234,15.134,15.134,0,0,0-4.877,2.355A8.637,8.637,0,0,0,822.6,447.5a7.043,7.043,0,0,0-.277,4.447,5.3,5.3,0,0,0,1.048,1.948,7.307,7.307,0,0,0,1.953,1.546c1.525.871,3.254,1.395,4.633,2.51a6.541,6.541,0,0,1,.989.984,1.8,1.8,0,0,0,.795.625,1.623,1.623,0,0,0,1.744-.449,5.9,5.9,0,0,0,.686-1.22l.728-1.4a1.961,1.961,0,0,1,.182-.351c.054-.065-.043,0-.024-.016s.031-.009.043-.017a1.05,1.05,0,0,1,.188-.072q1.01-.385,2.029-.746c2.507-.894,5.044-1.717,7.622-2.384a36.885,36.885,0,0,1,4.029-.843c1.758-.25,3.544-.221,5.31-.393a12.263,12.263,0,0,0,5.5-1.617,7.135,7.135,0,0,0,2.954-3.536,4.948,4.948,0,0,0,.246-2.189A5.89,5.89,0,0,0,860.3,440.318Z" transform="translate(-618.479 -347.908)" fill="#fff"/>
      <path id="Path_27" data-name="Path 27" d="M875.061,446.9,850,451.523a.554.554,0,0,1-.2-1.09h0l25.057-4.621a.554.554,0,0,1,.2,1.09Z" transform="translate(-636.459 -352.61)" fill="#e6e6e6"/>
      <path id="Path_28" data-name="Path 28" d="M876.874,456.732l-25.057,4.622a.554.554,0,0,1-.2-1.09h0l25.057-4.621a.554.554,0,1,1,.2,1.09Z" transform="translate(-637.655 -359.093)" fill="#e6e6e6"/>
      <path id="Path_29" data-name="Path 29" d="M856.553,478.553l-2.92.539a.554.554,0,1,1-.2-1.09l2.92-.539a.554.554,0,0,1,.2,1.09Z" transform="translate(-638.854 -373.486)" fill="#e6e6e6"/>
      <circle id="Ellipse_3" data-name="Ellipse 3" cx="2.356" cy="2.356" r="2.356" transform="matrix(0.983, -0.181, 0.181, 0.983, 212.411, 114.772)" fill="#d1d3d4"/>
      <path id="Path_30" data-name="Path 30" d="M427.642,328.841h-21.4a3.752,3.752,0,0,1-3.748-3.748V310.988a3.752,3.752,0,0,1,3.748-3.748h21.4a3.752,3.752,0,0,1,3.748,3.748v14.106a3.752,3.752,0,0,1-3.748,3.747Z" transform="translate(-341.734 -261.221)" fill="#e6e6e6"/>
      <path id="Path_31" data-name="Path 31" d="M427.052,332.035H408.425a3.265,3.265,0,0,1-3.262-3.262V316.5a3.265,3.265,0,0,1,3.262-3.262h18.627a3.265,3.265,0,0,1,3.262,3.262v12.276a3.265,3.265,0,0,1-3.262,3.261Z" transform="translate(-343.496 -265.175)" fill="#fff"/>
      <path id="Path_32" data-name="Path 32" d="M430.776,405.534H403.314a.641.641,0,1,1,0-1.282h27.462a.641.641,0,1,1,0,1.282Z" transform="translate(-341.853 -325.206)" fill="#e6e6e6"/>
      <path id="Path_33" data-name="Path 33" d="M430.776,394.778H403.314a.641.641,0,1,1,0-1.282h27.462a.641.641,0,0,1,0,1.282Z" transform="translate(-341.853 -318.112)" fill="#e6e6e6"/>
      <path id="Path_34" data-name="Path 34" d="M430.776,416.289H403.314a.641.641,0,1,1,0-1.282h27.462a.641.641,0,0,1,0,1.282Z" transform="translate(-341.853 -332.299)" fill="#e6e6e6"/>
      <path id="Path_35" data-name="Path 35" d="M430.776,427.044H403.314a.641.641,0,1,1,0-1.282h27.462a.641.641,0,0,1,0,1.282Z" transform="translate(-341.853 -339.393)" fill="#e6e6e6"/>
      <path id="Path_36" data-name="Path 36" d="M430.776,437.8H403.314a.641.641,0,1,1,0-1.282h27.462a.641.641,0,1,1,0,1.282Z" transform="translate(-341.853 -346.487)" fill="#e6e6e6"/>
      <path id="Path_37" data-name="Path 37" d="M430.776,448.555H403.314a.641.641,0,0,1,0-1.282h27.462a.641.641,0,0,1,0,1.282Z" transform="translate(-341.853 -353.58)" fill="#e6e6e6"/>
      <path id="Path_38" data-name="Path 38" d="M122.74,254.306h.681v26.229H74.173v-.681H122.74Z" transform="translate(-48.921 -167.729)" fill="#3f3d56"/>
      <path id="Path_39" data-name="Path 39" d="M228.451,498.918h18.044a4.426,4.426,0,1,0,0-8.852H228.451a4.426,4.426,0,1,0,0,8.852Z" transform="translate(-224.025 -381.804)" fill="#6c63ff"/>
      <circle id="Ellipse_4" data-name="Ellipse 4" cx="4.067" cy="4.067" r="4.067" transform="translate(70.566 80.42)" fill="#6c63ff"/>
      <path id="Path_40" data-name="Path 40" d="M504.21,421.577c5.971,1.269,4.452,1.517,10.423,2.786l5.142,1.093c.643.137.819-.87.176-1.006-5.971-1.269-4.452-1.517-10.423-2.786l-5.142-1.093C503.743,420.434,503.567,421.44,504.21,421.577Z" transform="translate(-408.556 -335.96)" fill="#f2f2f2"/>
      <path id="Path_41" data-name="Path 41" d="M543.431,413.341l6.8,8.022a3.162,3.162,0,0,1,.612.826c.13.345-.149.489-.44.6a21.529,21.529,0,0,1-2.552.66l-5.087,1.276c-.638.16-.292,1.122.341.963l4.43-1.111,2.215-.556a3.45,3.45,0,0,0,1.815-.78c.962-1.058-.324-2.258-.985-3.039l-2.959-3.493-3.343-3.946c-.421-.5-1.268.075-.843.577Z" transform="translate(-434.025 -330.693)" fill="#f2f2f2"/>
      <circle id="Ellipse_5" data-name="Ellipse 5" cx="9.458" cy="9.458" r="9.458" transform="translate(121.496 98.7)" fill="#e6e6e6"/>
      <circle id="Ellipse_6" data-name="Ellipse 6" cx="7.19" cy="7.19" r="7.19" transform="translate(122.841 102.03)" fill="#fff"/>
      <path id="Path_42" data-name="Path 42" d="M595.143,488.266a1.052,1.052,0,0,1-.841-.421l-2.58-3.44a1.052,1.052,0,1,1,1.682-1.263h0l1.688,2.251,4.336-6.5a1.052,1.052,0,0,1,1.751,1.167l-5.16,7.741a1.052,1.052,0,0,1-.846.468Z" transform="translate(-466.402 -374.124)" fill="#e6e6e6"/>
      <path id="Path_43" data-name="Path 43" d="M860.957,485.591a2.416,2.416,0,0,0,.611-3.655l7.594-13.27-4.456.242-6.692,12.859a2.429,2.429,0,0,0,2.944,3.823Z" transform="translate(-641.693 -367.69)" fill="#ffb8b8"/>
      <path id="Path_44" data-name="Path 44" d="M842.951,380.718s8.043-2.586,10.111,3.62,9.022,23.012,9.022,23.012L854.614,422.6l-3.361-3.62,3.592-10.6L844.5,392.87Z" transform="translate(-632.24 -309.331)" fill="#3f3d56"/>
      <path id="Path_45" data-name="Path 45" d="M869.9,493.319a4.389,4.389,0,0,0-.909-1.088l-2.566-2.47-.143.318a3.483,3.483,0,0,0,1.419,5,2.268,2.268,0,0,0,1.226.253,1.344,1.344,0,0,0,1.035-.647A1.486,1.486,0,0,0,869.9,493.319Z" transform="translate(-647.271 -381.603)" fill="#e6e6e6"/>
      <path id="Path_46" data-name="Path 46" d="M383.093,355.068h-.681V381.3h23.034v-.681H383.093Z" transform="translate(-252.222 -234.187)" fill="#3f3d56"/>
      <path id="Path_47" data-name="Path 47" d="M696.162,595.254a4.43,4.43,0,0,0-4.426-4.426H673.693a4.426,4.426,0,1,0,0,8.852h18.044A4.43,4.43,0,0,0,696.162,595.254Z" transform="translate(-517.686 -448.262)" fill="#6c63ff"/>
      <circle id="Ellipse_7" data-name="Ellipse 7" cx="4.067" cy="4.067" r="4.067" transform="translate(125.99 114.724)" fill="#6c63ff"/>
    </g>
  </g>
</svg>
