<?xml version="1.0" standalone="no"?>
<!DOCTYPE svg PUBLIC "-//W3C//DTD SVG 20010904//EN"
 "http://www.w3.org/TR/2001/REC-SVG-20010904/DTD/svg10.dtd">
<svg version="1.0" xmlns="http://www.w3.org/2000/svg"
 width="100.000000pt" height="100.000000pt" viewBox="0 0 100.000000 100.000000"
 preserveAspectRatio="xMidYMid meet">
<metadata>
Created by potrace 1.14, written by Peter Selinger 2001-2017
</metadata>
<g transform="translate(0.000000,100.000000) scale(0.100000,-0.100000)"
fill="#000000" stroke="none">
<path d="M180 650 c0 -5 7 -10 15 -10 19 0 19 -18 -3 -111 -11 -44 -15 -85
-11 -96 24 -66 134 -70 191 -7 9 11 26 61 38 113 17 72 27 95 41 98 37 10 19
23 -31 23 -53 0 -60 -5 -34 -25 15 -10 15 -18 -1 -90 -27 -119 -85 -165 -146
-117 -21 18 -22 21 -11 78 20 98 32 134 47 134 8 0 17 5 20 10 4 6 -17 10 -54
10 -34 0 -61 -4 -61 -10z"/>
<path d="M770 654 c0 -4 7 -12 16 -18 14 -11 14 -22 -7 -118 -20 -92 -27 -109
-49 -120 -24 -12 -22 -13 34 -16 66 -3 78 2 51 22 -18 13 -18 16 5 117 12 57
29 108 36 112 28 16 13 27 -36 27 -27 0 -50 -3 -50 -6z"/>
<path d="M498 583 c-22 -5 -23 -12 -3 -27 12 -10 12 -21 -4 -93 l-19 -83 22 0
c19 0 23 9 35 72 18 96 18 96 54 104 47 10 57 -11 39 -85 -8 -33 -12 -67 -9
-75 10 -24 87 -18 87 6 0 6 -6 8 -13 5 -8 -3 -20 -2 -27 3 -11 7 -10 19 3 70
21 83 10 110 -43 110 -14 0 -36 -8 -50 -17 -22 -16 -23 -16 -17 0 7 17 -14 21
-55 10z"/>
</g>
</svg>
